<svg width="512" height="512" viewBox="0 0 512 512" fill="none" xmlns="http://www.w3.org/2000/svg">
<g clip-path="url(#clip0_1_66)">
<path opacity="0.993" fill-rule="evenodd" clip-rule="evenodd" d="M423.5 135.5C428.97 150.578 434.637 165.578 440.5 180.5C441.5 180.5 442.5 180.5 443.5 180.5C445.407 183.975 447.574 187.309 450 190.5C464.374 206.539 478.374 222.872 492 239.5C494.201 245.96 495.035 252.627 494.5 259.5C482.5 259.5 470.5 259.5 458.5 259.5C434.833 259.5 411.167 259.5 387.5 259.5C387.5 277.5 387.5 295.5 387.5 313.5C411.167 313.5 434.833 313.5 458.5 313.5C470.5 313.5 482.5 313.5 494.5 313.5C494.5 324.833 494.5 336.167 494.5 347.5C444.5 347.5 394.5 347.5 344.5 347.5C344.831 317.995 344.498 288.662 343.5 259.5C284.833 259.5 226.167 259.5 167.5 259.5C166.502 288.662 166.169 317.995 166.5 347.5C116.5 347.5 66.5 347.5 16.5 347.5C16.5 336.167 16.5 324.833 16.5 313.5C28.5 313.5 40.5 313.5 52.5 313.5C76.1667 313.5 99.8333 313.5 123.5 313.5C123.5 295.5 123.5 277.5 123.5 259.5C99.8333 259.5 76.1667 259.5 52.5 259.5C40.5 259.5 28.5 259.5 16.5 259.5C15.9653 252.627 16.7986 245.96 19 239.5C32.6256 222.872 46.6256 206.539 61 190.5C63.4262 187.309 65.5928 183.975 67.5 180.5C68.5 180.5 69.5 180.5 70.5 180.5C76.3631 165.578 82.0298 150.578 87.5 135.5C98.0414 108.746 108.875 82.0789 120 55.5C122.928 51.619 126.761 49.119 131.5 48C214.167 47.3333 296.833 47.3333 379.5 48C386.573 50.0724 391.406 54.5724 394 61.5C403.743 86.2353 413.577 110.902 423.5 135.5Z" fill="#00C50D"/>
<path fill-rule="evenodd" clip-rule="evenodd" d="M140.5 83.5C217.167 83.3333 293.834 83.5 370.5 84C382.26 115.778 393.927 147.612 405.5 179.5C305.5 180.833 205.5 180.833 105.5 179.5C117.175 147.472 128.842 115.472 140.5 83.5Z" fill="#DAF4FF"/>
<path opacity="0.969" fill-rule="evenodd" clip-rule="evenodd" d="M87.5 135.5C82.0298 150.578 76.3631 165.578 70.5 180.5C69.5 180.5 68.5 180.5 67.5 180.5C50.5 180.5 33.5 180.5 16.5 180.5C16.5 165.5 16.5 150.5 16.5 135.5C40.1667 135.5 63.8333 135.5 87.5 135.5Z" fill="#333333"/>
<path opacity="0.97" fill-rule="evenodd" clip-rule="evenodd" d="M423.5 135.5C444.167 135.5 464.833 135.5 485.5 135.5C485.5 150.5 485.5 165.5 485.5 180.5C471.5 180.5 457.5 180.5 443.5 180.5C442.5 180.5 441.5 180.5 440.5 180.5C434.637 165.578 428.97 150.578 423.5 135.5Z" fill="#333333"/>
<path opacity="0.722" fill-rule="evenodd" clip-rule="evenodd" d="M16.5 259.5C28.5 259.5 40.5 259.5 52.5 259.5C52.5 259.833 52.5 260.167 52.5 260.5C40.8333 260.5 29.1667 260.5 17.5 260.5C17.5 277.833 17.5 295.167 17.5 312.5C29.1667 312.5 40.8333 312.5 52.5 312.5C52.5 312.833 52.5 313.167 52.5 313.5C40.5 313.5 28.5 313.5 16.5 313.5C16.5 295.5 16.5 277.5 16.5 259.5Z" fill="#F59E68"/>
<path fill-rule="evenodd" clip-rule="evenodd" d="M52.5 260.5C52.5 277.833 52.5 295.167 52.5 312.5C40.8333 312.5 29.1667 312.5 17.5 312.5C17.5 295.167 17.5 277.833 17.5 260.5C29.1667 260.5 40.8333 260.5 52.5 260.5Z" fill="#FBB03B"/>
<path fill-rule="evenodd" clip-rule="evenodd" d="M52.5 260.5C75.8333 260.5 99.1667 260.5 122.5 260.5C122.5 277.833 122.5 295.167 122.5 312.5C99.1667 312.5 75.8333 312.5 52.5 312.5C52.5 295.167 52.5 277.833 52.5 260.5Z" fill="#F1F2F1"/>
<path fill-rule="evenodd" clip-rule="evenodd" d="M52.5 260.5C52.5 260.167 52.5 259.833 52.5 259.5C76.1667 259.5 99.8333 259.5 123.5 259.5C123.5 277.5 123.5 295.5 123.5 313.5C99.8333 313.5 76.1667 313.5 52.5 313.5C52.5 313.167 52.5 312.833 52.5 312.5C75.8333 312.5 99.1667 312.5 122.5 312.5C122.5 295.167 122.5 277.833 122.5 260.5C99.1667 260.5 75.8333 260.5 52.5 260.5Z" fill="#F08F92"/>
<path fill-rule="evenodd" clip-rule="evenodd" d="M167.5 260.5C176.167 260.5 184.833 260.5 193.5 260.5C193.5 289.833 193.5 319.167 193.5 348.5C184.833 348.5 176.167 348.5 167.5 348.5C167.5 319.167 167.5 289.833 167.5 260.5Z" fill="#CCCBCB"/>
<path fill-rule="evenodd" clip-rule="evenodd" d="M193.5 260.5C193.833 260.5 194.167 260.5 194.5 260.5C194.5 289.5 194.5 318.5 194.5 347.5C199.833 347.5 205.167 347.5 210.5 347.5C210.5 318.5 210.5 289.5 210.5 260.5C210.833 260.5 211.167 260.5 211.5 260.5C211.5 289.833 211.5 319.167 211.5 348.5C205.5 348.5 199.5 348.5 193.5 348.5C193.5 319.167 193.5 289.833 193.5 260.5Z" fill="#656464"/>
<path fill-rule="evenodd" clip-rule="evenodd" d="M194.5 260.5C199.833 260.5 205.167 260.5 210.5 260.5C210.5 289.5 210.5 318.5 210.5 347.5C205.167 347.5 199.833 347.5 194.5 347.5C194.5 318.5 194.5 289.5 194.5 260.5Z" fill="#4C4D4C"/>
<path fill-rule="evenodd" clip-rule="evenodd" d="M211.5 260.5C217.167 260.5 222.833 260.5 228.5 260.5C228.5 289.833 228.5 319.167 228.5 348.5C222.833 348.5 217.167 348.5 211.5 348.5C211.5 319.167 211.5 289.833 211.5 260.5Z" fill="#CCCBCB"/>
<path fill-rule="evenodd" clip-rule="evenodd" d="M167.5 260.5C167.5 260.167 167.5 259.833 167.5 259.5C226.167 259.5 284.833 259.5 343.5 259.5C343.5 259.833 343.5 260.167 343.5 260.5C334.833 260.5 326.167 260.5 317.5 260.5C317.167 260.5 316.833 260.5 316.5 260.5C311.167 260.5 305.833 260.5 300.5 260.5C300.167 260.5 299.833 260.5 299.5 260.5C293.833 260.5 288.167 260.5 282.5 260.5C282.5 289.833 282.5 319.167 282.5 348.5C282.167 348.5 281.833 348.5 281.5 348.5C281.5 319.167 281.5 289.833 281.5 260.5C275.833 260.5 270.167 260.5 264.5 260.5C264.167 260.5 263.833 260.5 263.5 260.5C258.167 260.5 252.833 260.5 247.5 260.5C247.167 260.5 246.833 260.5 246.5 260.5C240.833 260.5 235.167 260.5 229.5 260.5C229.5 289.833 229.5 319.167 229.5 348.5C229.167 348.5 228.833 348.5 228.5 348.5C228.5 319.167 228.5 289.833 228.5 260.5C222.833 260.5 217.167 260.5 211.5 260.5C211.167 260.5 210.833 260.5 210.5 260.5C205.167 260.5 199.833 260.5 194.5 260.5C194.167 260.5 193.833 260.5 193.5 260.5C184.833 260.5 176.167 260.5 167.5 260.5Z" fill="#9C8787"/>
<path fill-rule="evenodd" clip-rule="evenodd" d="M246.5 260.5C246.5 289.833 246.5 319.167 246.5 348.5C240.833 348.5 235.167 348.5 229.5 348.5C229.5 319.167 229.5 289.833 229.5 260.5C235.167 260.5 240.833 260.5 246.5 260.5Z" fill="#4D4D4D"/>
<path fill-rule="evenodd" clip-rule="evenodd" d="M246.5 260.5C246.833 260.5 247.167 260.5 247.5 260.5C247.5 289.5 247.5 318.5 247.5 347.5C252.833 347.5 258.167 347.5 263.5 347.5C263.5 318.5 263.5 289.5 263.5 260.5C263.833 260.5 264.167 260.5 264.5 260.5C264.5 289.833 264.5 319.167 264.5 348.5C258.5 348.5 252.5 348.5 246.5 348.5C246.5 319.167 246.5 289.833 246.5 260.5Z" fill="#B7B3B3"/>
<path fill-rule="evenodd" clip-rule="evenodd" d="M247.5 260.5C252.833 260.5 258.167 260.5 263.5 260.5C263.5 289.5 263.5 318.5 263.5 347.5C258.167 347.5 252.833 347.5 247.5 347.5C247.5 318.5 247.5 289.5 247.5 260.5Z" fill="#CBCCCB"/>
<path fill-rule="evenodd" clip-rule="evenodd" d="M264.5 260.5C270.167 260.5 275.833 260.5 281.5 260.5C281.5 289.833 281.5 319.167 281.5 348.5C275.833 348.5 270.167 348.5 264.5 348.5C264.5 319.167 264.5 289.833 264.5 260.5Z" fill="#4D4D4D"/>
<path fill-rule="evenodd" clip-rule="evenodd" d="M299.5 260.5C299.5 289.833 299.5 319.167 299.5 348.5C293.833 348.5 288.167 348.5 282.5 348.5C282.5 319.167 282.5 289.833 282.5 260.5C288.167 260.5 293.833 260.5 299.5 260.5Z" fill="#CCCBCB"/>
<path fill-rule="evenodd" clip-rule="evenodd" d="M299.5 260.5C299.833 260.5 300.167 260.5 300.5 260.5C300.5 289.5 300.5 318.5 300.5 347.5C305.833 347.5 311.167 347.5 316.5 347.5C316.5 318.5 316.5 289.5 316.5 260.5C316.833 260.5 317.167 260.5 317.5 260.5C317.5 289.833 317.5 319.167 317.5 348.5C311.5 348.5 305.5 348.5 299.5 348.5C299.5 319.167 299.5 289.833 299.5 260.5Z" fill="#656464"/>
<path fill-rule="evenodd" clip-rule="evenodd" d="M300.5 260.5C305.833 260.5 311.167 260.5 316.5 260.5C316.5 289.5 316.5 318.5 316.5 347.5C311.167 347.5 305.833 347.5 300.5 347.5C300.5 318.5 300.5 289.5 300.5 260.5Z" fill="#4C4D4C"/>
<path fill-rule="evenodd" clip-rule="evenodd" d="M317.5 260.5C326.167 260.5 334.833 260.5 343.5 260.5C343.5 289.833 343.5 319.167 343.5 348.5C334.833 348.5 326.167 348.5 317.5 348.5C317.5 319.167 317.5 289.833 317.5 260.5Z" fill="#CCCBCB"/>
<path fill-rule="evenodd" clip-rule="evenodd" d="M458.5 259.5C458.5 259.833 458.5 260.167 458.5 260.5C435.167 260.5 411.833 260.5 388.5 260.5C388.5 277.833 388.5 295.167 388.5 312.5C411.833 312.5 435.167 312.5 458.5 312.5C458.5 312.833 458.5 313.167 458.5 313.5C434.833 313.5 411.167 313.5 387.5 313.5C387.5 295.5 387.5 277.5 387.5 259.5C411.167 259.5 434.833 259.5 458.5 259.5Z" fill="#F08F92"/>
<path fill-rule="evenodd" clip-rule="evenodd" d="M458.5 260.5C458.5 277.833 458.5 295.167 458.5 312.5C435.167 312.5 411.833 312.5 388.5 312.5C388.5 295.167 388.5 277.833 388.5 260.5C411.833 260.5 435.167 260.5 458.5 260.5Z" fill="#F1F2F1"/>
<path fill-rule="evenodd" clip-rule="evenodd" d="M458.5 260.5C470.167 260.5 481.833 260.5 493.5 260.5C493.5 277.833 493.5 295.167 493.5 312.5C481.833 312.5 470.167 312.5 458.5 312.5C458.5 295.167 458.5 277.833 458.5 260.5Z" fill="#FBB03B"/>
<path opacity="0.722" fill-rule="evenodd" clip-rule="evenodd" d="M458.5 260.5C458.5 260.167 458.5 259.833 458.5 259.5C470.5 259.5 482.5 259.5 494.5 259.5C494.5 277.5 494.5 295.5 494.5 313.5C482.5 313.5 470.5 313.5 458.5 313.5C458.5 313.167 458.5 312.833 458.5 312.5C470.167 312.5 481.833 312.5 493.5 312.5C493.5 295.167 493.5 277.833 493.5 260.5C481.833 260.5 470.167 260.5 458.5 260.5Z" fill="#F59E68"/>
<path opacity="0.993" fill-rule="evenodd" clip-rule="evenodd" d="M16.5 347.5C66.6639 348.499 116.997 348.832 167.5 348.5C176.167 348.5 184.833 348.5 193.5 348.5C199.5 348.5 205.5 348.5 211.5 348.5C217.167 348.5 222.833 348.5 228.5 348.5C228.833 348.5 229.167 348.5 229.5 348.5C235.167 348.5 240.833 348.5 246.5 348.5C252.5 348.5 258.5 348.5 264.5 348.5C270.167 348.5 275.833 348.5 281.5 348.5C281.833 348.5 282.167 348.5 282.5 348.5C288.167 348.5 293.833 348.5 299.5 348.5C305.5 348.5 311.5 348.5 317.5 348.5C326.167 348.5 334.833 348.5 343.5 348.5C394.003 348.832 444.336 348.499 494.5 347.5C501.121 346.374 506.787 348.041 511.5 352.5C511.5 370.167 511.5 387.833 511.5 405.5C509.968 407.521 507.968 409.021 505.5 410C495.839 410.5 486.172 410.666 476.5 410.5C446.833 409.167 417.167 409.167 387.5 410.5C299.5 410.5 211.5 410.5 123.5 410.5C93.8333 409.167 64.1667 409.167 34.5 410.5C24.8276 410.666 15.1609 410.5 5.5 410C3.03244 409.021 1.03244 407.521 -0.5 405.5C-0.5 387.833 -0.5 370.167 -0.5 352.5C4.21253 348.041 9.87919 346.374 16.5 347.5Z" fill="#E5E6E5"/>
<path opacity="0.788" fill-rule="evenodd" clip-rule="evenodd" d="M167.5 259.5C167.5 259.833 167.5 260.167 167.5 260.5C167.5 289.833 167.5 319.167 167.5 348.5C116.997 348.832 66.6639 348.499 16.5 347.5C66.5 347.5 116.5 347.5 166.5 347.5C166.169 317.995 166.502 288.662 167.5 259.5Z" fill="#E86469"/>
<path opacity="0.788" fill-rule="evenodd" clip-rule="evenodd" d="M343.5 259.5C344.498 288.662 344.831 317.995 344.5 347.5C394.5 347.5 444.5 347.5 494.5 347.5C444.336 348.499 394.003 348.832 343.5 348.5C343.5 319.167 343.5 289.833 343.5 260.5C343.5 260.167 343.5 259.833 343.5 259.5Z" fill="#E86469"/>
<path opacity="0.981" fill-rule="evenodd" clip-rule="evenodd" d="M123.5 410.5C123.5 428.167 123.5 445.833 123.5 463.5C93.8333 463.5 64.1667 463.5 34.5 463.5C34.5 445.833 34.5 428.167 34.5 410.5C64.1667 409.167 93.8333 409.167 123.5 410.5Z" fill="#333333"/>
<path opacity="0.981" fill-rule="evenodd" clip-rule="evenodd" d="M476.5 410.5C476.5 428.167 476.5 445.833 476.5 463.5C446.833 463.5 417.167 463.5 387.5 463.5C387.5 445.833 387.5 428.167 387.5 410.5C417.167 409.167 446.833 409.167 476.5 410.5Z" fill="#333333"/>
</g>
<defs>
<clipPath id="clip0_1_66">
<rect width="512" height="512" fill="white"/>
</clipPath>
</defs>
</svg>
